# MagicaVoxel @ ephtracy

# material
mtllib shiled.mtl
usemtl palette

# normals
vn -1 0 0
vn 1 0 0
vn 0 0 1
vn 0 0 -1
vn 0 -1 0
vn 0 1 0

# texcoords
vt 0.380859 0.5
vt 0.384766 0.5

# verts
v -21 22 4
v -21 22 -3
v -21 23 3
v -21 23 -2
v -21 30 3
v -21 30 -2
v -21 31 4
v -21 31 -3
v -20 20 6
v -20 20 -5
v -20 21 5
v -20 21 -4
v -20 22 4
v -20 22 -3
v -20 31 4
v -20 31 -3
v -20 32 5
v -20 32 -4
v -20 33 6
v -20 33 -5
v -19 18 8
v -19 18 -7
v -19 19 7
v -19 19 -6
v -19 20 6
v -19 20 -5
v -19 33 6
v -19 33 -5
v -19 34 7
v -19 34 -6
v -19 35 8
v -19 35 -7
v -14 24 3
v -14 24 -1
v -14 25 3
v -14 25 -1
v -17 18 8
v -17 18 -7
v -17 24 4
v -17 24 3
v -17 24 -1
v -17 24 -2
v -17 25 4
v -17 25 3
v -17 25 -1
v -17 25 -2
v -17 35 8
v -17 35 -7
v -13 24 4
v -13 24 -2
v -13 25 4
v -13 25 -2
v -19 18 8
v -19 35 8
v -17 18 8
v -17 35 8
v -20 20 6
v -20 33 6
v -19 20 6
v -19 33 6
v -21 22 4
v -21 31 4
v -20 22 4
v -20 31 4
v -17 24 4
v -17 25 4
v -13 24 4
v -13 25 4
v -17 24 -1
v -17 25 -1
v -14 24 -1
v -14 25 -1
v -17 24 3
v -17 25 3
v -14 24 3
v -14 25 3
v -17 24 -2
v -17 25 -2
v -13 24 -2
v -13 25 -2
v -21 22 -3
v -21 31 -3
v -20 22 -3
v -20 31 -3
v -20 20 -5
v -20 33 -5
v -19 20 -5
v -19 33 -5
v -19 18 -7
v -19 35 -7
v -17 18 -7
v -17 35 -7
v -19 18 8
v -17 18 8
v -19 18 -7
v -17 18 -7
v -20 20 6
v -19 20 6
v -20 20 -5
v -19 20 -5
v -21 22 4
v -20 22 4
v -21 22 -3
v -20 22 -3
v -17 24 4
v -13 24 4
v -17 24 3
v -14 24 3
v -17 24 -1
v -14 24 -1
v -17 24 -2
v -13 24 -2
v -17 25 4
v -13 25 4
v -17 25 3
v -14 25 3
v -17 25 -1
v -14 25 -1
v -17 25 -2
v -13 25 -2
v -21 31 4
v -20 31 4
v -21 31 -3
v -20 31 -3
v -20 33 6
v -19 33 6
v -20 33 -5
v -19 33 -5
v -19 35 8
v -17 35 8
v -19 35 -7
v -17 35 -7

# faces
f 3/2/1 2/2/1 1/2/1
f 4/2/1 2/2/1 3/2/1
f 5/2/1 3/2/1 1/2/1
f 5/1/1 4/1/1 3/1/1
f 6/2/1 2/2/1 4/2/1
f 6/1/1 4/1/1 5/1/1
f 7/2/1 5/2/1 1/2/1
f 7/2/1 6/2/1 5/2/1
f 8/2/1 2/2/1 6/2/1
f 8/2/1 6/2/1 7/2/1
f 11/2/1 10/2/1 9/2/1
f 12/2/1 10/2/1 11/2/1
f 13/1/1 12/1/1 11/1/1
f 14/1/1 12/1/1 13/1/1
f 15/1/1 13/1/1 11/1/1
f 16/1/1 12/1/1 14/1/1
f 17/2/1 11/2/1 9/2/1
f 17/1/1 16/1/1 15/1/1
f 17/1/1 15/1/1 11/1/1
f 18/1/1 12/1/1 16/1/1
f 18/1/1 16/1/1 17/1/1
f 18/2/1 10/2/1 12/2/1
f 19/2/1 17/2/1 9/2/1
f 19/2/1 18/2/1 17/2/1
f 20/2/1 10/2/1 18/2/1
f 20/2/1 18/2/1 19/2/1
f 23/2/1 22/2/1 21/2/1
f 24/2/1 22/2/1 23/2/1
f 25/1/1 24/1/1 23/1/1
f 26/1/1 24/1/1 25/1/1
f 27/1/1 25/1/1 23/1/1
f 28/1/1 24/1/1 26/1/1
f 29/2/1 23/2/1 21/2/1
f 29/1/1 28/1/1 27/1/1
f 29/1/1 27/1/1 23/1/1
f 30/1/1 24/1/1 28/1/1
f 30/1/1 28/1/1 29/1/1
f 30/2/1 22/2/1 24/2/1
f 31/2/1 29/2/1 21/2/1
f 31/2/1 30/2/1 29/2/1
f 32/2/1 22/2/1 30/2/1
f 32/2/1 30/2/1 31/2/1
f 35/1/1 34/1/1 33/1/1
f 36/1/1 34/1/1 35/1/1
f 37/2/2 38/2/2 39/2/2
f 39/2/2 38/2/2 40/2/2
f 40/2/2 38/2/2 41/2/2
f 41/2/2 38/2/2 42/2/2
f 37/2/2 39/2/2 43/2/2
f 40/2/2 41/2/2 44/2/2
f 44/2/2 41/2/2 45/2/2
f 42/2/2 38/2/2 46/2/2
f 44/2/2 45/2/2 47/2/2
f 45/2/2 46/2/2 47/2/2
f 37/2/2 43/2/2 47/2/2
f 43/2/2 44/2/2 47/2/2
f 46/2/2 38/2/2 48/2/2
f 47/2/2 46/2/2 48/2/2
f 49/1/2 50/1/2 51/1/2
f 51/1/2 50/1/2 52/1/2
f 55/2/3 54/2/3 53/2/3
f 56/2/3 54/2/3 55/2/3
f 59/2/3 58/2/3 57/2/3
f 60/2/3 58/2/3 59/2/3
f 63/2/3 62/2/3 61/2/3
f 64/2/3 62/2/3 63/2/3
f 67/1/3 66/1/3 65/1/3
f 68/1/3 66/1/3 67/1/3
f 71/1/3 70/1/3 69/1/3
f 72/1/3 70/1/3 71/1/3
f 73/1/4 74/1/4 75/1/4
f 75/1/4 74/1/4 76/1/4
f 77/1/4 78/1/4 79/1/4
f 79/1/4 78/1/4 80/1/4
f 81/2/4 82/2/4 83/2/4
f 83/2/4 82/2/4 84/2/4
f 85/2/4 86/2/4 87/2/4
f 87/2/4 86/2/4 88/2/4
f 89/2/4 90/2/4 91/2/4
f 91/2/4 90/2/4 92/2/4
f 95/2/5 94/2/5 93/2/5
f 96/2/5 94/2/5 95/2/5
f 99/2/5 98/2/5 97/2/5
f 100/2/5 98/2/5 99/2/5
f 103/2/5 102/2/5 101/2/5
f 104/2/5 102/2/5 103/2/5
f 107/1/5 106/1/5 105/1/5
f 108/1/5 106/1/5 107/1/5
f 110/1/5 106/1/5 108/1/5
f 111/1/5 110/1/5 109/1/5
f 112/1/5 106/1/5 110/1/5
f 112/1/5 110/1/5 111/1/5
f 113/1/6 114/1/6 115/1/6
f 115/1/6 114/1/6 116/1/6
f 116/1/6 114/1/6 118/1/6
f 117/1/6 118/1/6 119/1/6
f 118/1/6 114/1/6 120/1/6
f 119/1/6 118/1/6 120/1/6
f 121/2/6 122/2/6 123/2/6
f 123/2/6 122/2/6 124/2/6
f 125/2/6 126/2/6 127/2/6
f 127/2/6 126/2/6 128/2/6
f 129/2/6 130/2/6 131/2/6
f 131/2/6 130/2/6 132/2/6
