# MagicaVoxel @ ephtracy

# material
mtllib PigOBJ.mtl
usemtl palette

# normals
vn -1 0 0
vn 1 0 0
vn 0 0 1
vn 0 0 -1
vn 0 -1 0
vn 0 1 0

# texcoords
vt 0.0292969 0.5
vt 0.0566406 0.5
vt 0.0839844 0.5
vt 0.673828 0.5
vt 0.962891 0.5
vt 0.994141 0.5

# verts
v -6 0 -2.5
v -6 0 -4.5
v -6 1 -2.5
v -6 1 -4.5
v -6 5 3.5
v -6 5 -2.5
v -6 5 -4.5
v -6 5 -5.5
v -6 7 3.5
v -6 7 -2.5
v -6 7 -4.5
v -6 7 -5.5
v -6 8 6.5
v -6 8 4.5
v -6 9 6.5
v -6 9 5.5
v -6 9 1.5
v -6 9 -3.5
v -6 10 6.5
v -6 10 5.5
v -6 10 4.5
v -6 10 -3.5
v -6 10 -4.5
v -6 11 1.5
v -6 11 -4.5
v -6 12 3.5
v -6 12 -5.5
v -5 0 6.5
v -5 0 4.5
v -5 1 6.5
v -5 1 4.5
v -5 5 7.5
v -5 5 6.5
v -5 5 4.5
v -5 5 3.5
v -5 7 7.5
v -5 7 6.5
v -5 7 4.5
v -5 7 3.5
v -5 8 10.5
v -5 8 8.5
v -5 8 6.5
v -5 8 4.5
v -5 9 6.5
v -5 10 6.5
v -5 10 5.5
v -5 10 4.5
v -5 11 10.5
v -5 11 8.5
v -5 11 7.5
v -5 11 3.5
v -4 5 9.5
v -4 5 7.5
v -4 6 9.5
v -4 6 8.5
v -4 7 9.5
v -4 7 8.5
v -4 7 7.5
v -4 8 9.5
v -4 8 8.5
v -4 10 8.5
v -4 10 7.5
v -4 11 6.5
v -4 11 5.5
v -4 11 4.5
v -4 12 6.5
v -4 12 5.5
v -4 13 6.5
v -4 13 5.5
v -4 13 4.5
v -3 6 9.5
v -3 6 8.5
v -3 7 9.5
v -3 7 8.5
v -2 6 -5.5
v -2 6 -6.5
v -2 7 -5.5
v -2 8 -5.5
v -2 8 -6.5
v -2 9 10.5
v -2 9 9.5
v -2 9 -5.5
v -2 9 -6.5
v -2 10 10.5
v -2 10 9.5
v -1 6 -6.5
v -1 6 -7.5
v -1 7 -6.5
v -1 7 -7.5
v 2 6 9.5
v 2 6 8.5
v 2 7 9.5
v 2 7 8.5
v 2 11 6.5
v 2 11 5.5
v 2 11 4.5
v 2 13 6.5
v 2 13 5.5
v 2 13 4.5
v 3 0 6.5
v 3 0 4.5
v 3 1 6.5
v 3 1 4.5
v 3 5 6.5
v 3 5 4.5
v 4 0 -2.5
v 4 0 -4.5
v 4 1 -2.5
v 4 1 -4.5
v 4 5 -2.5
v 4 5 -4.5
v 4 9 10.5
v 4 9 9.5
v 4 10 10.5
v 4 10 9.5
v -4 0 -2.5
v -4 0 -4.5
v -4 1 -2.5
v -4 1 -4.5
v -4 5 -2.5
v -4 5 -4.5
v -4 9 10.5
v -4 9 9.5
v -4 10 10.5
v -4 10 9.5
v -3 0 6.5
v -3 0 4.5
v -3 1 6.5
v -3 1 4.5
v -3 5 6.5
v -3 5 4.5
v -2 6 9.5
v -2 6 8.5
v -2 7 9.5
v -2 7 8.5
v -2 11 6.5
v -2 11 5.5
v -2 11 4.5
v -2 13 6.5
v -2 13 5.5
v -2 13 4.5
v 1 6 -6.5
v 1 6 -7.5
v 1 7 -6.5
v 1 7 -7.5
v 2 6 -5.5
v 2 6 -6.5
v 2 7 -5.5
v 2 8 -5.5
v 2 8 -6.5
v 2 9 10.5
v 2 9 9.5
v 2 9 -5.5
v 2 9 -6.5
v 2 10 10.5
v 2 10 9.5
v 3 6 9.5
v 3 6 8.5
v 3 7 9.5
v 3 7 8.5
v 4 5 9.5
v 4 5 7.5
v 4 6 9.5
v 4 6 8.5
v 4 7 9.5
v 4 7 8.5
v 4 7 7.5
v 4 8 9.5
v 4 8 8.5
v 4 10 8.5
v 4 10 7.5
v 4 11 6.5
v 4 11 5.5
v 4 11 4.5
v 4 12 6.5
v 4 12 5.5
v 4 13 6.5
v 4 13 5.5
v 4 13 4.5
v 5 0 6.5
v 5 0 4.5
v 5 1 6.5
v 5 1 4.5
v 5 5 7.5
v 5 5 6.5
v 5 5 4.5
v 5 5 3.5
v 5 7 7.5
v 5 7 6.5
v 5 7 4.5
v 5 7 3.5
v 5 8 10.5
v 5 8 8.5
v 5 8 6.5
v 5 8 4.5
v 5 9 6.5
v 5 10 6.5
v 5 10 5.5
v 5 10 4.5
v 5 11 10.5
v 5 11 8.5
v 5 11 7.5
v 5 11 3.5
v 6 0 -2.5
v 6 0 -4.5
v 6 1 -2.5
v 6 1 -4.5
v 6 5 3.5
v 6 5 -2.5
v 6 5 -4.5
v 6 5 -5.5
v 6 7 3.5
v 6 7 -2.5
v 6 7 -4.5
v 6 7 -5.5
v 6 8 6.5
v 6 8 4.5
v 6 9 6.5
v 6 9 5.5
v 6 9 1.5
v 6 9 -3.5
v 6 10 6.5
v 6 10 5.5
v 6 10 4.5
v 6 10 -3.5
v 6 10 -4.5
v 6 11 1.5
v 6 11 -4.5
v 6 12 3.5
v 6 12 -5.5
v -5 8 10.5
v -5 11 10.5
v -4 9 10.5
v -4 10 10.5
v -2 9 10.5
v -2 10 10.5
v 2 9 10.5
v 2 10 10.5
v 4 9 10.5
v 4 10 10.5
v 5 8 10.5
v 5 11 10.5
v -4 5 9.5
v -4 6 9.5
v -4 7 9.5
v -4 8 9.5
v -4 9 9.5
v -4 10 9.5
v -3 6 9.5
v -3 7 9.5
v -2 6 9.5
v -2 7 9.5
v -2 9 9.5
v -2 10 9.5
v 2 6 9.5
v 2 7 9.5
v 2 9 9.5
v 2 10 9.5
v 3 6 9.5
v 3 7 9.5
v 4 5 9.5
v 4 6 9.5
v 4 7 9.5
v 4 8 9.5
v 4 9 9.5
v 4 10 9.5
v -4 6 8.5
v -4 7 8.5
v -3 6 8.5
v -3 7 8.5
v -2 6 8.5
v -2 7 8.5
v 2 6 8.5
v 2 7 8.5
v 3 6 8.5
v 3 7 8.5
v 4 6 8.5
v 4 7 8.5
v -5 5 7.5
v -5 7 7.5
v -5 11 7.5
v -4 5 7.5
v -4 7 7.5
v -4 10 7.5
v 4 5 7.5
v 4 7 7.5
v 4 10 7.5
v 5 5 7.5
v 5 7 7.5
v 5 11 7.5
v -6 8 6.5
v -6 9 6.5
v -6 10 6.5
v -5 0 6.5
v -5 1 6.5
v -5 5 6.5
v -5 8 6.5
v -5 9 6.5
v -5 10 6.5
v -4 11 6.5
v -4 12 6.5
v -4 13 6.5
v -3 0 6.5
v -3 1 6.5
v -3 5 6.5
v -3 11 6.5
v -3 12 6.5
v -2 11 6.5
v -2 13 6.5
v 2 11 6.5
v 2 13 6.5
v 3 0 6.5
v 3 1 6.5
v 3 5 6.5
v 3 11 6.5
v 3 12 6.5
v 4 11 6.5
v 4 12 6.5
v 4 13 6.5
v 5 0 6.5
v 5 1 6.5
v 5 5 6.5
v 5 8 6.5
v 5 9 6.5
v 5 10 6.5
v 6 8 6.5
v 6 9 6.5
v 6 10 6.5
v -6 5 3.5
v -6 7 3.5
v -6 12 3.5
v -5 5 3.5
v -5 7 3.5
v -5 11 3.5
v 5 5 3.5
v 5 7 3.5
v 5 11 3.5
v 6 5 3.5
v 6 7 3.5
v 6 12 3.5
v -6 0 -2.5
v -6 1 -2.5
v -6 5 -2.5
v -4 0 -2.5
v -4 1 -2.5
v -4 5 -2.5
v 4 0 -2.5
v 4 1 -2.5
v 4 5 -2.5
v 6 0 -2.5
v 6 1 -2.5
v 6 5 -2.5
v -5 8 8.5
v -5 11 8.5
v -4 8 8.5
v -4 10 8.5
v 4 8 8.5
v 4 10 8.5
v 5 8 8.5
v 5 11 8.5
v -6 8 4.5
v -6 10 4.5
v -5 0 4.5
v -5 1 4.5
v -5 5 4.5
v -5 8 4.5
v -5 10 4.5
v -4 11 4.5
v -4 13 4.5
v -3 0 4.5
v -3 1 4.5
v -3 5 4.5
v -2 11 4.5
v -2 13 4.5
v 2 11 4.5
v 2 13 4.5
v 3 0 4.5
v 3 1 4.5
v 3 5 4.5
v 4 11 4.5
v 4 13 4.5
v 5 0 4.5
v 5 1 4.5
v 5 5 4.5
v 5 8 4.5
v 5 10 4.5
v 6 8 4.5
v 6 10 4.5
v -6 0 -4.5
v -6 1 -4.5
v -6 5 -4.5
v -4 0 -4.5
v -4 1 -4.5
v -4 5 -4.5
v 4 0 -4.5
v 4 1 -4.5
v 4 5 -4.5
v 6 0 -4.5
v 6 1 -4.5
v 6 5 -4.5
v -6 5 -5.5
v -6 7 -5.5
v -6 12 -5.5
v -2 6 -5.5
v -2 7 -5.5
v -2 8 -5.5
v -2 9 -5.5
v 2 6 -5.5
v 2 7 -5.5
v 2 8 -5.5
v 2 9 -5.5
v 6 5 -5.5
v 6 7 -5.5
v 6 12 -5.5
v -2 6 -6.5
v -2 8 -6.5
v -2 9 -6.5
v -1 6 -6.5
v -1 7 -6.5
v 1 6 -6.5
v 1 7 -6.5
v 2 6 -6.5
v 2 8 -6.5
v 2 9 -6.5
v -1 6 -7.5
v -1 7 -7.5
v 1 6 -7.5
v 1 7 -7.5
v -5 0 6.5
v -3 0 6.5
v 3 0 6.5
v 5 0 6.5
v -5 0 4.5
v -3 0 4.5
v 3 0 4.5
v 5 0 4.5
v -6 0 -2.5
v -4 0 -2.5
v 4 0 -2.5
v 6 0 -2.5
v -6 0 -4.5
v -4 0 -4.5
v 4 0 -4.5
v 6 0 -4.5
v -4 5 9.5
v 4 5 9.5
v -5 5 7.5
v -4 5 7.5
v 4 5 7.5
v 5 5 7.5
v -5 5 6.5
v -3 5 6.5
v 3 5 6.5
v 5 5 6.5
v -5 5 4.5
v -3 5 4.5
v 3 5 4.5
v 5 5 4.5
v -6 5 3.5
v -5 5 3.5
v 5 5 3.5
v 6 5 3.5
v -6 5 -2.5
v -4 5 -2.5
v 4 5 -2.5
v 6 5 -2.5
v -6 5 -4.5
v -4 5 -4.5
v 4 5 -4.5
v 6 5 -4.5
v -6 5 -5.5
v 6 5 -5.5
v -2 6 -5.5
v 2 6 -5.5
v -2 6 -6.5
v -1 6 -6.5
v 1 6 -6.5
v 2 6 -6.5
v -1 6 -7.5
v 1 6 -7.5
v -4 7 9.5
v -3 7 9.5
v -2 7 9.5
v 2 7 9.5
v 3 7 9.5
v 4 7 9.5
v -4 7 8.5
v -3 7 8.5
v -2 7 8.5
v 2 7 8.5
v 3 7 8.5
v 4 7 8.5
v -5 8 10.5
v 5 8 10.5
v -4 8 9.5
v 4 8 9.5
v -5 8 8.5
v -4 8 8.5
v 4 8 8.5
v 5 8 8.5
v -6 8 6.5
v -5 8 6.5
v 5 8 6.5
v 6 8 6.5
v -6 8 4.5
v -5 8 4.5
v 5 8 4.5
v 6 8 4.5
v -4 10 10.5
v -2 10 10.5
v 2 10 10.5
v 4 10 10.5
v -4 10 9.5
v -2 10 9.5
v 2 10 9.5
v 4 10 9.5
v -4 6 9.5
v -3 6 9.5
v -2 6 9.5
v 2 6 9.5
v 3 6 9.5
v 4 6 9.5
v -4 6 8.5
v -3 6 8.5
v -2 6 8.5
v 2 6 8.5
v 3 6 8.5
v 4 6 8.5
v -1 7 -6.5
v 1 7 -6.5
v -1 7 -7.5
v 1 7 -7.5
v -4 9 10.5
v -2 9 10.5
v 2 9 10.5
v 4 9 10.5
v -4 9 9.5
v -2 9 9.5
v 2 9 9.5
v 4 9 9.5
v -2 9 -5.5
v 2 9 -5.5
v -2 9 -6.5
v 2 9 -6.5
v -4 10 8.5
v 4 10 8.5
v -4 10 7.5
v 4 10 7.5
v -6 10 6.5
v -5 10 6.5
v 5 10 6.5
v 6 10 6.5
v -6 10 5.5
v -5 10 5.5
v 5 10 5.5
v 6 10 5.5
v -6 10 4.5
v -5 10 4.5
v 5 10 4.5
v 6 10 4.5
v -5 11 10.5
v 5 11 10.5
v -5 11 8.5
v 5 11 8.5
v -5 11 7.5
v 5 11 7.5
v -4 11 6.5
v -3 11 6.5
v -2 11 6.5
v 2 11 6.5
v 3 11 6.5
v 4 11 6.5
v -4 11 5.5
v -2 11 5.5
v 2 11 5.5
v 4 11 5.5
v -4 11 4.5
v -2 11 4.5
v 2 11 4.5
v 4 11 4.5
v -5 11 3.5
v 5 11 3.5
v -6 12 3.5
v 6 12 3.5
v -6 12 -5.5
v 6 12 -5.5
v -4 13 6.5
v -2 13 6.5
v 2 13 6.5
v 4 13 6.5
v -4 13 5.5
v -2 13 5.5
v 2 13 5.5
v 4 13 5.5
v -4 13 4.5
v -2 13 4.5
v 2 13 4.5
v 4 13 4.5

# faces
f 3/4/1 2/4/1 1/4/1
f 4/4/1 2/4/1 3/4/1
f 6/1/1 4/1/1 3/1/1
f 7/1/1 4/1/1 6/1/1
f 9/2/1 6/2/1 5/2/1
f 10/1/1 7/1/1 6/1/1
f 10/2/1 6/2/1 9/2/1
f 11/2/1 8/2/1 7/2/1
f 11/1/1 7/1/1 10/1/1
f 12/2/1 8/2/1 11/2/1
f 15/5/1 14/5/1 13/5/1
f 16/5/1 14/5/1 15/5/1
f 17/3/1 10/3/1 9/3/1
f 17/3/1 11/3/1 10/3/1
f 17/3/1 12/3/1 11/3/1
f 18/3/1 12/3/1 17/3/1
f 19/6/1 16/6/1 15/6/1
f 20/5/1 14/5/1 16/5/1
f 20/6/1 16/6/1 19/6/1
f 21/5/1 14/5/1 20/5/1
f 22/3/1 12/3/1 18/3/1
f 22/1/1 18/1/1 17/1/1
f 23/3/1 12/3/1 22/3/1
f 24/3/1 17/3/1 9/3/1
f 24/1/1 23/1/1 22/1/1
f 24/1/1 22/1/1 17/1/1
f 25/3/1 12/3/1 23/3/1
f 25/1/1 23/1/1 24/1/1
f 26/3/1 24/3/1 9/3/1
f 26/3/1 25/3/1 24/3/1
f 27/3/1 12/3/1 25/3/1
f 27/3/1 25/3/1 26/3/1
f 30/4/1 29/4/1 28/4/1
f 31/4/1 29/4/1 30/4/1
f 33/1/1 31/1/1 30/1/1
f 34/1/1 31/1/1 33/1/1
f 36/2/1 33/2/1 32/2/1
f 37/1/1 34/1/1 33/1/1
f 37/2/1 33/2/1 36/2/1
f 38/2/1 35/2/1 34/2/1
f 38/1/1 34/1/1 37/1/1
f 39/2/1 35/2/1 38/2/1
f 42/3/1 37/3/1 36/3/1
f 42/3/1 38/3/1 37/3/1
f 42/3/1 39/3/1 38/3/1
f 43/3/1 39/3/1 42/3/1
f 44/3/1 42/3/1 36/3/1
f 45/3/1 44/3/1 36/3/1
f 47/3/1 39/3/1 43/3/1
f 48/3/1 41/3/1 40/3/1
f 49/3/1 41/3/1 48/3/1
f 50/3/1 47/3/1 46/3/1
f 50/3/1 46/3/1 45/3/1
f 50/3/1 45/3/1 36/3/1
f 51/3/1 39/3/1 47/3/1
f 51/3/1 47/3/1 50/3/1
f 54/2/1 53/2/1 52/2/1
f 55/2/1 53/2/1 54/2/1
f 57/2/1 53/2/1 55/2/1
f 58/2/1 53/2/1 57/2/1
f 59/3/1 57/3/1 56/3/1
f 59/3/1 58/3/1 57/3/1
f 60/3/1 58/3/1 59/3/1
f 61/3/1 58/3/1 60/3/1
f 62/3/1 58/3/1 61/3/1
f 66/2/1 64/2/1 63/2/1
f 67/3/1 65/3/1 64/3/1
f 67/2/1 64/2/1 66/2/1
f 68/1/1 67/1/1 66/1/1
f 69/3/1 65/3/1 67/3/1
f 69/1/1 67/1/1 68/1/1
f 70/3/1 65/3/1 69/3/1
f 73/5/1 72/5/1 71/5/1
f 74/5/1 72/5/1 73/5/1
f 77/2/1 76/2/1 75/2/1
f 78/2/1 76/2/1 77/2/1
f 79/2/1 76/2/1 78/2/1
f 82/3/1 79/3/1 78/3/1
f 83/3/1 79/3/1 82/3/1
f 84/3/1 81/3/1 80/3/1
f 85/3/1 81/3/1 84/3/1
f 88/2/1 87/2/1 86/2/1
f 89/2/1 87/2/1 88/2/1
f 92/5/1 91/5/1 90/5/1
f 93/5/1 91/5/1 92/5/1
f 97/1/1 95/1/1 94/1/1
f 98/3/1 96/3/1 95/3/1
f 98/1/1 95/1/1 97/1/1
f 99/3/1 96/3/1 98/3/1
f 102/4/1 101/4/1 100/4/1
f 103/4/1 101/4/1 102/4/1
f 104/1/1 103/1/1 102/1/1
f 105/1/1 103/1/1 104/1/1
f 108/4/1 107/4/1 106/4/1
f 109/4/1 107/4/1 108/4/1
f 110/1/1 109/1/1 108/1/1
f 111/1/1 109/1/1 110/1/1
f 114/3/1 113/3/1 112/3/1
f 115/3/1 113/3/1 114/3/1
f 116/4/2 117/4/2 118/4/2
f 118/4/2 117/4/2 119/4/2
f 118/1/2 119/1/2 120/1/2
f 120/1/2 119/1/2 121/1/2
f 122/3/2 123/3/2 124/3/2
f 124/3/2 123/3/2 125/3/2
f 126/4/2 127/4/2 128/4/2
f 128/4/2 127/4/2 129/4/2
f 128/1/2 129/1/2 130/1/2
f 130/1/2 129/1/2 131/1/2
f 132/5/2 133/5/2 134/5/2
f 134/5/2 133/5/2 135/5/2
f 136/1/2 137/1/2 139/1/2
f 137/3/2 138/3/2 140/3/2
f 139/1/2 137/1/2 140/1/2
f 140/3/2 138/3/2 141/3/2
f 142/2/2 143/2/2 144/2/2
f 144/2/2 143/2/2 145/2/2
f 146/2/2 147/2/2 148/2/2
f 148/2/2 147/2/2 149/2/2
f 149/2/2 147/2/2 150/2/2
f 149/3/2 150/3/2 153/3/2
f 153/3/2 150/3/2 154/3/2
f 151/3/2 152/3/2 155/3/2
f 155/3/2 152/3/2 156/3/2
f 157/5/2 158/5/2 159/5/2
f 159/5/2 158/5/2 160/5/2
f 161/2/2 162/2/2 163/2/2
f 163/2/2 162/2/2 164/2/2
f 164/2/2 162/2/2 166/2/2
f 166/2/2 162/2/2 167/2/2
f 165/3/2 166/3/2 168/3/2
f 166/3/2 167/3/2 168/3/2
f 168/3/2 167/3/2 169/3/2
f 169/3/2 167/3/2 170/3/2
f 170/3/2 167/3/2 171/3/2
f 172/2/2 173/2/2 175/2/2
f 173/3/2 174/3/2 176/3/2
f 175/2/2 173/2/2 176/2/2
f 175/1/2 176/1/2 177/1/2
f 176/3/2 174/3/2 178/3/2
f 177/1/2 176/1/2 178/1/2
f 178/3/2 174/3/2 179/3/2
f 180/4/2 181/4/2 182/4/2
f 182/4/2 181/4/2 183/4/2
f 182/1/2 183/1/2 185/1/2
f 185/1/2 183/1/2 186/1/2
f 184/2/2 185/2/2 188/2/2
f 185/1/2 186/1/2 189/1/2
f 188/2/2 185/2/2 189/2/2
f 186/2/2 187/2/2 190/2/2
f 189/1/2 186/1/2 190/1/2
f 190/2/2 187/2/2 191/2/2
f 188/3/2 189/3/2 194/3/2
f 189/3/2 190/3/2 194/3/2
f 190/3/2 191/3/2 194/3/2
f 194/3/2 191/3/2 195/3/2
f 188/3/2 194/3/2 196/3/2
f 188/3/2 196/3/2 197/3/2
f 195/3/2 191/3/2 199/3/2
f 192/3/2 193/3/2 200/3/2
f 200/3/2 193/3/2 201/3/2
f 198/3/2 199/3/2 202/3/2
f 197/3/2 198/3/2 202/3/2
f 188/3/2 197/3/2 202/3/2
f 199/3/2 191/3/2 203/3/2
f 202/3/2 199/3/2 203/3/2
f 204/4/2 205/4/2 206/4/2
f 206/4/2 205/4/2 207/4/2
f 206/1/2 207/1/2 209/1/2
f 209/1/2 207/1/2 210/1/2
f 208/2/2 209/2/2 212/2/2
f 209/1/2 210/1/2 213/1/2
f 212/2/2 209/2/2 213/2/2
f 210/2/2 211/2/2 214/2/2
f 213/1/2 210/1/2 214/1/2
f 214/2/2 211/2/2 215/2/2
f 216/5/2 217/5/2 218/5/2
f 218/5/2 217/5/2 219/5/2
f 212/3/2 213/3/2 220/3/2
f 213/3/2 214/3/2 220/3/2
f 214/3/2 215/3/2 220/3/2
f 220/3/2 215/3/2 221/3/2
f 218/6/2 219/6/2 222/6/2
f 219/5/2 217/5/2 223/5/2
f 222/6/2 219/6/2 223/6/2
f 223/5/2 217/5/2 224/5/2
f 221/3/2 215/3/2 225/3/2
f 220/1/2 221/1/2 225/1/2
f 225/3/2 215/3/2 226/3/2
f 212/3/2 220/3/2 227/3/2
f 225/1/2 226/1/2 227/1/2
f 220/1/2 225/1/2 227/1/2
f 226/3/2 215/3/2 228/3/2
f 227/1/2 226/1/2 228/1/2
f 212/3/2 227/3/2 229/3/2
f 227/3/2 228/3/2 229/3/2
f 228/3/2 215/3/2 230/3/2
f 229/3/2 228/3/2 230/3/2
f 233/3/3 232/3/3 231/3/3
f 234/3/3 232/3/3 233/3/3
f 235/3/3 233/3/3 231/3/3
f 236/3/3 232/3/3 234/3/3
f 237/3/3 235/3/3 231/3/3
f 237/3/3 236/3/3 235/3/3
f 238/3/3 232/3/3 236/3/3
f 238/3/3 236/3/3 237/3/3
f 239/3/3 237/3/3 231/3/3
f 240/3/3 232/3/3 238/3/3
f 241/3/3 239/3/3 231/3/3
f 241/3/3 240/3/3 239/3/3
f 242/3/3 232/3/3 240/3/3
f 242/3/3 240/3/3 241/3/3
f 249/2/3 244/2/3 243/2/3
f 250/3/3 246/3/3 245/3/3
f 251/2/3 249/2/3 243/2/3
f 251/5/3 250/5/3 249/5/3
f 252/3/3 246/3/3 250/3/3
f 252/5/3 250/5/3 251/5/3
f 253/3/3 248/3/3 247/3/3
f 254/3/3 248/3/3 253/3/3
f 255/2/3 251/2/3 243/2/3
f 256/3/3 246/3/3 252/3/3
f 259/2/3 255/2/3 243/2/3
f 259/5/3 256/5/3 255/5/3
f 260/3/3 246/3/3 256/3/3
f 260/5/3 256/5/3 259/5/3
f 261/2/3 259/2/3 243/2/3
f 262/2/3 259/2/3 261/2/3
f 263/3/3 246/3/3 260/3/3
f 264/3/3 246/3/3 263/3/3
f 265/3/3 258/3/3 257/3/3
f 266/3/3 258/3/3 265/3/3
f 269/2/3 268/2/3 267/2/3
f 270/2/3 268/2/3 269/2/3
f 273/2/3 272/2/3 271/2/3
f 274/2/3 272/2/3 273/2/3
f 277/2/3 276/2/3 275/2/3
f 278/2/3 276/2/3 277/2/3
f 282/2/3 280/2/3 279/2/3
f 283/3/3 281/3/3 280/3/3
f 283/2/3 280/2/3 282/2/3
f 284/3/3 281/3/3 283/3/3
f 287/3/3 281/3/3 284/3/3
f 288/2/3 286/2/3 285/2/3
f 289/3/3 287/3/3 286/3/3
f 289/2/3 286/2/3 288/2/3
f 290/3/3 281/3/3 287/3/3
f 290/3/3 287/3/3 289/3/3
f 297/5/3 292/5/3 291/5/3
f 298/6/3 293/6/3 292/6/3
f 298/5/3 292/5/3 297/5/3
f 299/6/3 293/6/3 298/6/3
f 303/4/3 295/4/3 294/4/3
f 304/1/3 296/1/3 295/1/3
f 304/4/3 295/4/3 303/4/3
f 305/1/3 296/1/3 304/1/3
f 306/2/3 301/2/3 300/2/3
f 307/1/3 302/1/3 301/1/3
f 307/2/3 301/2/3 306/2/3
f 308/1/3 307/1/3 306/1/3
f 309/1/3 302/1/3 307/1/3
f 309/1/3 307/1/3 308/1/3
f 315/1/3 311/1/3 310/1/3
f 316/1/3 311/1/3 315/1/3
f 317/2/3 316/2/3 315/2/3
f 318/1/3 311/1/3 316/1/3
f 318/2/3 316/2/3 317/2/3
f 319/1/3 311/1/3 318/1/3
f 320/4/3 313/4/3 312/4/3
f 321/1/3 314/1/3 313/1/3
f 321/4/3 313/4/3 320/4/3
f 322/1/3 314/1/3 321/1/3
f 326/5/3 324/5/3 323/5/3
f 327/6/3 325/6/3 324/6/3
f 327/5/3 324/5/3 326/5/3
f 328/6/3 325/6/3 327/6/3
f 332/2/3 330/2/3 329/2/3
f 333/3/3 331/3/3 330/3/3
f 333/2/3 330/2/3 332/2/3
f 334/3/3 331/3/3 333/3/3
f 337/3/3 331/3/3 334/3/3
f 338/2/3 336/2/3 335/2/3
f 339/3/3 337/3/3 336/3/3
f 339/2/3 336/2/3 338/2/3
f 340/3/3 331/3/3 337/3/3
f 340/3/3 337/3/3 339/3/3
f 344/4/3 342/4/3 341/4/3
f 345/1/3 343/1/3 342/1/3
f 345/4/3 342/4/3 344/4/3
f 346/1/3 343/1/3 345/1/3
f 350/4/3 348/4/3 347/4/3
f 351/1/3 349/1/3 348/1/3
f 351/4/3 348/4/3 350/4/3
f 352/1/3 349/1/3 351/1/3
f 353/3/4 354/3/4 355/3/4
f 355/3/4 354/3/4 356/3/4
f 356/3/4 354/3/4 358/3/4
f 357/3/4 358/3/4 359/3/4
f 358/3/4 354/3/4 360/3/4
f 359/3/4 358/3/4 360/3/4
f 361/5/4 362/5/4 366/5/4
f 366/5/4 362/5/4 367/5/4
f 363/4/4 364/4/4 370/4/4
f 364/1/4 365/1/4 371/1/4
f 370/4/4 364/4/4 371/4/4
f 371/1/4 365/1/4 372/1/4
f 368/3/4 369/3/4 373/3/4
f 373/3/4 369/3/4 374/3/4
f 375/3/4 376/3/4 380/3/4
f 380/3/4 376/3/4 381/3/4
f 377/4/4 378/4/4 382/4/4
f 378/1/4 379/1/4 383/1/4
f 382/4/4 378/4/4 383/4/4
f 383/1/4 379/1/4 384/1/4
f 385/5/4 386/5/4 387/5/4
f 387/5/4 386/5/4 388/5/4
f 389/4/4 390/4/4 392/4/4
f 390/1/4 391/1/4 393/1/4
f 392/4/4 390/4/4 393/4/4
f 393/1/4 391/1/4 394/1/4
f 395/4/4 396/4/4 398/4/4
f 396/1/4 397/1/4 399/1/4
f 398/4/4 396/4/4 399/4/4
f 399/1/4 397/1/4 400/1/4
f 401/2/4 402/2/4 404/2/4
f 402/3/4 403/3/4 405/3/4
f 404/2/4 402/2/4 405/2/4
f 405/3/4 403/3/4 406/3/4
f 406/3/4 403/3/4 407/3/4
f 401/2/4 404/2/4 408/2/4
f 407/3/4 403/3/4 411/3/4
f 401/2/4 408/2/4 412/2/4
f 408/2/4 409/2/4 412/2/4
f 409/3/4 410/3/4 413/3/4
f 412/2/4 409/2/4 413/2/4
f 410/3/4 411/3/4 413/3/4
f 411/3/4 403/3/4 414/3/4
f 413/3/4 411/3/4 414/3/4
f 415/2/4 416/2/4 418/2/4
f 418/2/4 416/2/4 419/2/4
f 419/2/4 416/2/4 421/2/4
f 420/2/4 421/2/4 422/2/4
f 416/3/4 417/3/4 423/3/4
f 422/2/4 421/2/4 423/2/4
f 421/2/4 416/2/4 423/2/4
f 423/3/4 417/3/4 424/3/4
f 425/2/4 426/2/4 427/2/4
f 427/2/4 426/2/4 428/2/4
f 433/4/5 430/4/5 429/4/5
f 434/4/5 430/4/5 433/4/5
f 435/4/5 432/4/5 431/4/5
f 436/4/5 432/4/5 435/4/5
f 441/4/5 438/4/5 437/4/5
f 442/4/5 438/4/5 441/4/5
f 443/4/5 440/4/5 439/4/5
f 444/4/5 440/4/5 443/4/5
f 448/2/5 446/2/5 445/2/5
f 449/2/5 446/2/5 448/2/5
f 451/2/5 448/2/5 447/2/5
f 451/2/5 450/2/5 449/2/5
f 451/2/5 449/2/5 448/2/5
f 452/2/5 450/2/5 451/2/5
f 453/2/5 450/2/5 452/2/5
f 454/2/5 450/2/5 453/2/5
f 456/2/5 453/2/5 452/2/5
f 457/2/5 453/2/5 456/2/5
f 460/2/5 456/2/5 455/2/5
f 460/2/5 458/2/5 457/2/5
f 460/2/5 457/2/5 456/2/5
f 461/2/5 458/2/5 460/2/5
f 463/2/5 461/2/5 460/2/5
f 463/2/5 462/2/5 461/2/5
f 463/2/5 460/2/5 459/2/5
f 464/2/5 462/2/5 463/2/5
f 465/2/5 462/2/5 464/2/5
f 466/2/5 462/2/5 465/2/5
f 468/2/5 465/2/5 464/2/5
f 469/2/5 465/2/5 468/2/5
f 471/2/5 468/2/5 467/2/5
f 471/2/5 470/2/5 469/2/5
f 471/2/5 469/2/5 468/2/5
f 472/2/5 470/2/5 471/2/5
f 475/2/5 474/2/5 473/2/5
f 476/2/5 474/2/5 475/2/5
f 477/2/5 474/2/5 476/2/5
f 478/2/5 474/2/5 477/2/5
f 479/2/5 477/2/5 476/2/5
f 480/2/5 477/2/5 479/2/5
f 487/3/5 482/3/5 481/3/5
f 488/3/5 482/3/5 487/3/5
f 489/3/5 484/3/5 483/3/5
f 490/3/5 484/3/5 489/3/5
f 491/3/5 486/3/5 485/3/5
f 492/3/5 486/3/5 491/3/5
f 495/3/5 494/3/5 493/3/5
f 496/3/5 494/3/5 495/3/5
f 497/3/5 495/3/5 493/3/5
f 498/3/5 495/3/5 497/3/5
f 499/3/5 494/3/5 496/3/5
f 500/3/5 494/3/5 499/3/5
f 505/5/5 502/5/5 501/5/5
f 506/5/5 502/5/5 505/5/5
f 507/5/5 504/5/5 503/5/5
f 508/5/5 504/5/5 507/5/5
f 513/3/5 510/3/5 509/3/5
f 514/3/5 510/3/5 513/3/5
f 515/3/5 512/3/5 511/3/5
f 516/3/5 512/3/5 515/3/5
f 517/2/6 518/2/6 523/2/6
f 523/2/6 518/2/6 524/2/6
f 519/2/6 520/2/6 525/2/6
f 525/2/6 520/2/6 526/2/6
f 521/2/6 522/2/6 527/2/6
f 527/2/6 522/2/6 528/2/6
f 529/2/6 530/2/6 531/2/6
f 531/2/6 530/2/6 532/2/6
f 533/3/6 534/3/6 537/3/6
f 537/3/6 534/3/6 538/3/6
f 535/3/6 536/3/6 539/3/6
f 539/3/6 536/3/6 540/3/6
f 541/3/6 542/3/6 543/3/6
f 543/3/6 542/3/6 544/3/6
f 545/3/6 546/3/6 547/3/6
f 547/3/6 546/3/6 548/3/6
f 549/6/6 550/6/6 553/6/6
f 553/6/6 550/6/6 554/6/6
f 551/6/6 552/6/6 555/6/6
f 555/6/6 552/6/6 556/6/6
f 553/5/6 554/5/6 557/5/6
f 557/5/6 554/5/6 558/5/6
f 555/5/6 556/5/6 559/5/6
f 559/5/6 556/5/6 560/5/6
f 561/3/6 562/3/6 563/3/6
f 563/3/6 562/3/6 564/3/6
f 565/3/6 566/3/6 567/3/6
f 567/3/6 566/3/6 568/3/6
f 568/3/6 566/3/6 569/3/6
f 569/3/6 566/3/6 570/3/6
f 570/3/6 566/3/6 571/3/6
f 571/3/6 566/3/6 572/3/6
f 565/3/6 567/3/6 573/3/6
f 569/3/6 570/3/6 574/3/6
f 574/3/6 570/3/6 575/3/6
f 572/3/6 566/3/6 576/3/6
f 565/3/6 573/3/6 577/3/6
f 574/3/6 575/3/6 578/3/6
f 578/3/6 575/3/6 579/3/6
f 576/3/6 566/3/6 580/3/6
f 565/3/6 577/3/6 581/3/6
f 579/3/6 580/3/6 581/3/6
f 578/3/6 579/3/6 581/3/6
f 577/3/6 578/3/6 581/3/6
f 580/3/6 566/3/6 582/3/6
f 581/3/6 580/3/6 582/3/6
f 583/3/6 584/3/6 585/3/6
f 585/3/6 584/3/6 586/3/6
f 587/1/6 588/1/6 591/1/6
f 591/1/6 588/1/6 592/1/6
f 589/1/6 590/1/6 593/1/6
f 593/1/6 590/1/6 594/1/6
f 591/3/6 592/3/6 595/3/6
f 595/3/6 592/3/6 596/3/6
f 593/3/6 594/3/6 597/3/6
f 597/3/6 594/3/6 598/3/6
