# MagicaVoxel @ ephtracy

# material
mtllib Tree1.mtl
usemtl palette

# normals
vn -1 0 0
vn 1 0 0
vn 0 0 1
vn 0 0 -1
vn 0 -1 0
vn 0 1 0

# texcoords
vt 0.0605469 0.5
vt 0.123047 0.5
vt 0.541016 0.5
vt 0.583984 0.5
vt 0.634766 0.5

# verts
v -10 13 12
v -10 13 -9
v -10 17 12
v -10 17 -9
v -10 19 12
v -10 19 -9
v -10 23 12
v -10 23 -9
v -10 25 12
v -10 25 -9
v -10 29 12
v -10 29 -9
v -10 31 12
v -10 31 -9
v -10 35 12
v -10 35 -9
v -10 37 12
v -10 37 -9
v -10 41 12
v -10 41 -9
v -8 41 10
v -8 41 -7
v -8 42 10
v -8 42 -7
v -3 0 5
v -3 0 -2
v -3 13 5
v -3 13 -2
v 4 0 5
v 4 0 -2
v 4 13 5
v 4 13 -2
v 8 41 10
v 8 41 -7
v 8 42 10
v 8 42 -7
v 10 13 12
v 10 13 -9
v 10 17 12
v 10 17 -9
v 10 19 12
v 10 19 -9
v 10 23 12
v 10 23 -9
v 10 25 12
v 10 25 -9
v 10 29 12
v 10 29 -9
v 10 31 12
v 10 31 -9
v 10 35 12
v 10 35 -9
v 10 37 12
v 10 37 -9
v 10 41 12
v 10 41 -9
v -10 13 12
v -10 17 12
v -10 19 12
v -10 23 12
v -10 25 12
v -10 29 12
v -10 31 12
v -10 35 12
v -10 37 12
v -10 41 12
v 10 13 12
v 10 17 12
v 10 19 12
v 10 23 12
v 10 25 12
v 10 29 12
v 10 31 12
v 10 35 12
v 10 37 12
v 10 41 12
v -8 41 10
v -8 42 10
v 8 41 10
v 8 42 10
v -3 0 5
v -3 13 5
v 4 0 5
v 4 13 5
v -3 0 -2
v -3 13 -2
v 4 0 -2
v 4 13 -2
v -8 41 -7
v -8 42 -7
v 8 41 -7
v 8 42 -7
v -10 13 -9
v -10 17 -9
v -10 19 -9
v -10 23 -9
v -10 25 -9
v -10 29 -9
v -10 31 -9
v -10 35 -9
v -10 37 -9
v -10 41 -9
v 10 13 -9
v 10 17 -9
v 10 19 -9
v 10 23 -9
v 10 25 -9
v 10 29 -9
v 10 31 -9
v 10 35 -9
v 10 37 -9
v 10 41 -9
v -3 0 5
v 4 0 5
v -3 0 -2
v 4 0 -2
v -10 13 12
v 10 13 12
v -3 13 5
v 4 13 5
v -3 13 -2
v 4 13 -2
v -10 13 -9
v 10 13 -9
v -10 41 12
v 10 41 12
v -8 41 10
v 8 41 10
v -8 41 -7
v 8 41 -7
v -10 41 -9
v 10 41 -9
v -8 42 10
v 8 42 10
v -8 42 -7
v 8 42 -7

# faces
f 3/4/1 2/4/1 1/4/1
f 4/4/1 2/4/1 3/4/1
f 5/5/1 4/5/1 3/5/1
f 6/5/1 4/5/1 5/5/1
f 7/4/1 6/4/1 5/4/1
f 8/4/1 6/4/1 7/4/1
f 9/5/1 8/5/1 7/5/1
f 10/5/1 8/5/1 9/5/1
f 11/4/1 10/4/1 9/4/1
f 12/4/1 10/4/1 11/4/1
f 13/5/1 12/5/1 11/5/1
f 14/5/1 12/5/1 13/5/1
f 15/4/1 14/4/1 13/4/1
f 16/4/1 14/4/1 15/4/1
f 17/5/1 16/5/1 15/5/1
f 18/5/1 16/5/1 17/5/1
f 19/4/1 18/4/1 17/4/1
f 20/4/1 18/4/1 19/4/1
f 23/4/1 22/4/1 21/4/1
f 24/4/1 22/4/1 23/4/1
f 27/2/1 26/2/1 25/2/1
f 28/2/1 26/2/1 27/2/1
f 29/2/2 30/2/2 31/2/2
f 31/2/2 30/2/2 32/2/2
f 33/4/2 34/4/2 35/4/2
f 35/4/2 34/4/2 36/4/2
f 37/4/2 38/4/2 39/4/2
f 39/4/2 38/4/2 40/4/2
f 39/5/2 40/5/2 41/5/2
f 41/5/2 40/5/2 42/5/2
f 41/4/2 42/4/2 43/4/2
f 43/4/2 42/4/2 44/4/2
f 43/5/2 44/5/2 45/5/2
f 45/5/2 44/5/2 46/5/2
f 45/4/2 46/4/2 47/4/2
f 47/4/2 46/4/2 48/4/2
f 47/5/2 48/5/2 49/5/2
f 49/5/2 48/5/2 50/5/2
f 49/4/2 50/4/2 51/4/2
f 51/4/2 50/4/2 52/4/2
f 51/5/2 52/5/2 53/5/2
f 53/5/2 52/5/2 54/5/2
f 53/4/2 54/4/2 55/4/2
f 55/4/2 54/4/2 56/4/2
f 67/4/3 58/4/3 57/4/3
f 68/5/3 59/5/3 58/5/3
f 68/4/3 58/4/3 67/4/3
f 69/4/3 60/4/3 59/4/3
f 69/5/3 59/5/3 68/5/3
f 70/5/3 61/5/3 60/5/3
f 70/4/3 60/4/3 69/4/3
f 71/4/3 62/4/3 61/4/3
f 71/5/3 61/5/3 70/5/3
f 72/5/3 63/5/3 62/5/3
f 72/4/3 62/4/3 71/4/3
f 73/4/3 64/4/3 63/4/3
f 73/5/3 63/5/3 72/5/3
f 74/5/3 65/5/3 64/5/3
f 74/4/3 64/4/3 73/4/3
f 75/4/3 66/4/3 65/4/3
f 75/5/3 65/5/3 74/5/3
f 76/4/3 66/4/3 75/4/3
f 79/4/3 78/4/3 77/4/3
f 80/4/3 78/4/3 79/4/3
f 83/2/3 82/2/3 81/2/3
f 84/2/3 82/2/3 83/2/3
f 85/2/4 86/2/4 87/2/4
f 87/2/4 86/2/4 88/2/4
f 89/4/4 90/4/4 91/4/4
f 91/4/4 90/4/4 92/4/4
f 93/4/4 94/4/4 103/4/4
f 94/5/4 95/5/4 104/5/4
f 103/4/4 94/4/4 104/4/4
f 95/4/4 96/4/4 105/4/4
f 104/5/4 95/5/4 105/5/4
f 96/5/4 97/5/4 106/5/4
f 105/4/4 96/4/4 106/4/4
f 97/4/4 98/4/4 107/4/4
f 106/5/4 97/5/4 107/5/4
f 98/5/4 99/5/4 108/5/4
f 107/4/4 98/4/4 108/4/4
f 99/4/4 100/4/4 109/4/4
f 108/5/4 99/5/4 109/5/4
f 100/5/4 101/5/4 110/5/4
f 109/4/4 100/4/4 110/4/4
f 101/4/4 102/4/4 111/4/4
f 110/5/4 101/5/4 111/5/4
f 111/4/4 102/4/4 112/4/4
f 115/2/5 114/2/5 113/2/5
f 116/2/5 114/2/5 115/2/5
f 119/4/5 118/4/5 117/4/5
f 120/4/5 118/4/5 119/4/5
f 121/4/5 119/4/5 117/4/5
f 122/4/5 118/4/5 120/4/5
f 123/4/5 121/4/5 117/4/5
f 123/4/5 122/4/5 121/4/5
f 124/4/5 118/4/5 122/4/5
f 124/4/5 122/4/5 123/4/5
f 125/4/6 126/4/6 127/4/6
f 127/4/6 126/4/6 128/4/6
f 125/4/6 127/4/6 129/4/6
f 128/4/6 126/4/6 130/4/6
f 125/4/6 129/4/6 131/4/6
f 129/4/6 130/4/6 131/4/6
f 130/4/6 126/4/6 132/4/6
f 131/4/6 130/4/6 132/4/6
f 133/4/6 134/4/6 135/4/6
f 135/4/6 134/4/6 136/4/6
