# MagicaVoxel @ ephtracy

# material
mtllib Tree3.mtl
usemtl palette

# normals
vn -1 0 0
vn 1 0 0
vn 0 0 1
vn 0 0 -1
vn 0 -1 0
vn 0 1 0

# texcoords
vt 0.123047 0.5
vt 0.541016 0.5
vt 0.556641 0.5
vt 0.560547 0.5

# verts
v -10.5 12 10.5
v -10.5 12 -10.5
v -10.5 14 10.5
v -10.5 14 -10.5
v -10.5 17 10.5
v -10.5 17 -10.5
v -10.5 19 10.5
v -10.5 19 -10.5
v -10.5 22 10.5
v -10.5 22 -10.5
v -10.5 24 10.5
v -10.5 24 -10.5
v -9.5 24 9.5
v -9.5 24 -9.5
v -9.5 27 9.5
v -9.5 27 -9.5
v -9.5 29 9.5
v -9.5 29 -9.5
v -9.5 32 9.5
v -9.5 32 -9.5
v -9.5 34 9.5
v -9.5 34 -9.5
v -9.5 35 9.5
v -9.5 35 -9.5
v -7.5 35 7.5
v -7.5 35 -7.5
v -7.5 38 7.5
v -7.5 38 -7.5
v -7.5 40 7.5
v -7.5 40 -7.5
v -7.5 43 7.5
v -7.5 43 -7.5
v -7.5 45 7.5
v -7.5 45 -7.5
v -2.5 0 2.5
v -2.5 0 -2.5
v -2.5 12 2.5
v -2.5 12 -2.5
v 3.5 44 3.5
v 3.5 44 -3.5
v 3.5 45 3.5
v 3.5 45 -3.5
v -3.5 44 3.5
v -3.5 44 -3.5
v -3.5 45 3.5
v -3.5 45 -3.5
v 2.5 0 2.5
v 2.5 0 -2.5
v 2.5 12 2.5
v 2.5 12 -2.5
v 7.5 35 7.5
v 7.5 35 -7.5
v 7.5 38 7.5
v 7.5 38 -7.5
v 7.5 40 7.5
v 7.5 40 -7.5
v 7.5 43 7.5
v 7.5 43 -7.5
v 7.5 45 7.5
v 7.5 45 -7.5
v 9.5 24 9.5
v 9.5 24 -9.5
v 9.5 27 9.5
v 9.5 27 -9.5
v 9.5 29 9.5
v 9.5 29 -9.5
v 9.5 32 9.5
v 9.5 32 -9.5
v 9.5 34 9.5
v 9.5 34 -9.5
v 9.5 35 9.5
v 9.5 35 -9.5
v 10.5 12 10.5
v 10.5 12 -10.5
v 10.5 14 10.5
v 10.5 14 -10.5
v 10.5 17 10.5
v 10.5 17 -10.5
v 10.5 19 10.5
v 10.5 19 -10.5
v 10.5 22 10.5
v 10.5 22 -10.5
v 10.5 24 10.5
v 10.5 24 -10.5
v -10.5 12 10.5
v -10.5 14 10.5
v -10.5 17 10.5
v -10.5 19 10.5
v -10.5 22 10.5
v -10.5 24 10.5
v 10.5 12 10.5
v 10.5 14 10.5
v 10.5 17 10.5
v 10.5 19 10.5
v 10.5 22 10.5
v 10.5 24 10.5
v -9.5 24 9.5
v -9.5 27 9.5
v -9.5 29 9.5
v -9.5 32 9.5
v -9.5 34 9.5
v -9.5 35 9.5
v 9.5 24 9.5
v 9.5 27 9.5
v 9.5 29 9.5
v 9.5 32 9.5
v 9.5 34 9.5
v 9.5 35 9.5
v -7.5 35 7.5
v -7.5 38 7.5
v -7.5 40 7.5
v -7.5 43 7.5
v -7.5 45 7.5
v 7.5 35 7.5
v 7.5 38 7.5
v 7.5 40 7.5
v 7.5 43 7.5
v 7.5 45 7.5
v -2.5 0 2.5
v -2.5 12 2.5
v 2.5 0 2.5
v 2.5 12 2.5
v -3.5 44 -3.5
v -3.5 45 -3.5
v 3.5 44 -3.5
v 3.5 45 -3.5
v -3.5 44 3.5
v -3.5 45 3.5
v 3.5 44 3.5
v 3.5 45 3.5
v -2.5 0 -2.5
v -2.5 12 -2.5
v 2.5 0 -2.5
v 2.5 12 -2.5
v -7.5 35 -7.5
v -7.5 38 -7.5
v -7.5 40 -7.5
v -7.5 43 -7.5
v -7.5 45 -7.5
v 7.5 35 -7.5
v 7.5 38 -7.5
v 7.5 40 -7.5
v 7.5 43 -7.5
v 7.5 45 -7.5
v -9.5 24 -9.5
v -9.5 27 -9.5
v -9.5 29 -9.5
v -9.5 32 -9.5
v -9.5 34 -9.5
v -9.5 35 -9.5
v 9.5 24 -9.5
v 9.5 27 -9.5
v 9.5 29 -9.5
v 9.5 32 -9.5
v 9.5 34 -9.5
v 9.5 35 -9.5
v -10.5 12 -10.5
v -10.5 14 -10.5
v -10.5 17 -10.5
v -10.5 19 -10.5
v -10.5 22 -10.5
v -10.5 24 -10.5
v 10.5 12 -10.5
v 10.5 14 -10.5
v 10.5 17 -10.5
v 10.5 19 -10.5
v 10.5 22 -10.5
v 10.5 24 -10.5
v -2.5 0 2.5
v 2.5 0 2.5
v -2.5 0 -2.5
v 2.5 0 -2.5
v -10.5 12 10.5
v 10.5 12 10.5
v -2.5 12 2.5
v 2.5 12 2.5
v -2.5 12 -2.5
v 2.5 12 -2.5
v -10.5 12 -10.5
v 10.5 12 -10.5
v -10.5 24 10.5
v 10.5 24 10.5
v -9.5 24 9.5
v 9.5 24 9.5
v -9.5 24 -9.5
v 9.5 24 -9.5
v -10.5 24 -10.5
v 10.5 24 -10.5
v -9.5 35 9.5
v 9.5 35 9.5
v -7.5 35 7.5
v 7.5 35 7.5
v -7.5 35 -7.5
v 7.5 35 -7.5
v -9.5 35 -9.5
v 9.5 35 -9.5
v -3.5 44 3.5
v 3.5 44 3.5
v -3.5 44 -3.5
v 3.5 44 -3.5
v -7.5 45 7.5
v 7.5 45 7.5
v -3.5 45 3.5
v 3.5 45 3.5
v -3.5 45 -3.5
v 3.5 45 -3.5
v -7.5 45 -7.5
v 7.5 45 -7.5

# faces
f 3/2/1 2/2/1 1/2/1
f 4/2/1 2/2/1 3/2/1
f 5/3/1 4/3/1 3/3/1
f 6/3/1 4/3/1 5/3/1
f 7/2/1 6/2/1 5/2/1
f 8/2/1 6/2/1 7/2/1
f 9/3/1 8/3/1 7/3/1
f 10/3/1 8/3/1 9/3/1
f 11/2/1 10/2/1 9/2/1
f 12/2/1 10/2/1 11/2/1
f 15/3/1 14/3/1 13/3/1
f 16/3/1 14/3/1 15/3/1
f 17/2/1 16/2/1 15/2/1
f 18/2/1 16/2/1 17/2/1
f 19/3/1 18/3/1 17/3/1
f 20/3/1 18/3/1 19/3/1
f 21/2/1 20/2/1 19/2/1
f 22/2/1 20/2/1 21/2/1
f 23/3/1 22/3/1 21/3/1
f 24/3/1 22/3/1 23/3/1
f 27/3/1 26/3/1 25/3/1
f 28/3/1 26/3/1 27/3/1
f 29/2/1 28/2/1 27/2/1
f 30/2/1 28/2/1 29/2/1
f 31/3/1 30/3/1 29/3/1
f 32/3/1 30/3/1 31/3/1
f 33/2/1 32/2/1 31/2/1
f 34/2/1 32/2/1 33/2/1
f 37/1/1 36/1/1 35/1/1
f 38/1/1 36/1/1 37/1/1
f 41/2/1 40/2/1 39/2/1
f 42/2/1 40/2/1 41/2/1
f 43/2/2 44/2/2 45/2/2
f 45/2/2 44/2/2 46/2/2
f 47/1/2 48/1/2 49/1/2
f 49/1/2 48/1/2 50/1/2
f 51/3/2 52/3/2 53/3/2
f 53/3/2 52/3/2 54/3/2
f 53/2/2 54/2/2 55/2/2
f 55/2/2 54/2/2 56/2/2
f 55/3/2 56/3/2 57/3/2
f 57/3/2 56/3/2 58/3/2
f 57/2/2 58/2/2 59/2/2
f 59/2/2 58/2/2 60/2/2
f 61/3/2 62/3/2 63/3/2
f 63/3/2 62/3/2 64/3/2
f 63/2/2 64/2/2 65/2/2
f 65/2/2 64/2/2 66/2/2
f 65/3/2 66/3/2 67/3/2
f 67/3/2 66/3/2 68/3/2
f 67/2/2 68/2/2 69/2/2
f 69/2/2 68/2/2 70/2/2
f 69/3/2 70/3/2 71/3/2
f 71/3/2 70/3/2 72/3/2
f 73/2/2 74/2/2 75/2/2
f 75/2/2 74/2/2 76/2/2
f 75/3/2 76/3/2 77/3/2
f 77/3/2 76/3/2 78/3/2
f 77/2/2 78/2/2 79/2/2
f 79/2/2 78/2/2 80/2/2
f 79/3/2 80/3/2 81/3/2
f 81/3/2 80/3/2 82/3/2
f 81/2/2 82/2/2 83/2/2
f 83/2/2 82/2/2 84/2/2
f 91/2/3 86/2/3 85/2/3
f 92/3/3 87/3/3 86/3/3
f 92/2/3 86/2/3 91/2/3
f 93/2/3 88/2/3 87/2/3
f 93/3/3 87/3/3 92/3/3
f 94/3/3 89/3/3 88/3/3
f 94/2/3 88/2/3 93/2/3
f 95/2/3 90/2/3 89/2/3
f 95/3/3 89/3/3 94/3/3
f 96/2/3 90/2/3 95/2/3
f 103/3/3 98/3/3 97/3/3
f 104/2/3 99/2/3 98/2/3
f 104/3/3 98/3/3 103/3/3
f 105/3/3 100/3/3 99/3/3
f 105/2/3 99/2/3 104/2/3
f 106/2/3 101/2/3 100/2/3
f 106/3/3 100/3/3 105/3/3
f 107/3/3 102/3/3 101/3/3
f 107/2/3 101/2/3 106/2/3
f 108/3/3 102/3/3 107/3/3
f 114/3/3 110/3/3 109/3/3
f 115/2/3 111/2/3 110/2/3
f 115/3/3 110/3/3 114/3/3
f 116/3/3 112/3/3 111/3/3
f 116/2/3 111/2/3 115/2/3
f 117/2/3 113/2/3 112/2/3
f 117/3/3 112/3/3 116/3/3
f 118/2/3 113/2/3 117/2/3
f 121/1/3 120/1/3 119/1/3
f 122/1/3 120/1/3 121/1/3
f 125/2/3 124/2/3 123/2/3
f 126/2/3 124/2/3 125/2/3
f 127/2/4 128/2/4 129/2/4
f 129/2/4 128/2/4 130/2/4
f 131/1/4 132/1/4 133/1/4
f 133/1/4 132/1/4 134/1/4
f 135/3/4 136/3/4 140/3/4
f 136/2/4 137/2/4 141/2/4
f 140/3/4 136/3/4 141/3/4
f 137/3/4 138/3/4 142/3/4
f 141/2/4 137/2/4 142/2/4
f 138/2/4 139/2/4 143/2/4
f 142/3/4 138/3/4 143/3/4
f 143/2/4 139/2/4 144/2/4
f 145/3/4 146/3/4 151/3/4
f 146/2/4 147/2/4 152/2/4
f 151/3/4 146/3/4 152/3/4
f 147/3/4 148/3/4 153/3/4
f 152/2/4 147/2/4 153/2/4
f 148/2/4 149/2/4 154/2/4
f 153/3/4 148/3/4 154/3/4
f 149/3/4 150/3/4 155/3/4
f 154/2/4 149/2/4 155/2/4
f 155/3/4 150/3/4 156/3/4
f 157/2/4 158/2/4 163/2/4
f 158/3/4 159/3/4 164/3/4
f 163/2/4 158/2/4 164/2/4
f 159/2/4 160/2/4 165/2/4
f 164/3/4 159/3/4 165/3/4
f 160/3/4 161/3/4 166/3/4
f 165/2/4 160/2/4 166/2/4
f 161/2/4 162/2/4 167/2/4
f 166/3/4 161/3/4 167/3/4
f 167/2/4 162/2/4 168/2/4
f 171/1/5 170/1/5 169/1/5
f 172/1/5 170/1/5 171/1/5
f 175/2/5 174/2/5 173/2/5
f 176/2/5 174/2/5 175/2/5
f 177/2/5 175/2/5 173/2/5
f 178/2/5 174/2/5 176/2/5
f 179/2/5 177/2/5 173/2/5
f 179/2/5 178/2/5 177/2/5
f 180/2/5 174/2/5 178/2/5
f 180/2/5 178/2/5 179/2/5
f 181/2/6 182/2/6 183/2/6
f 183/2/6 182/2/6 184/2/6
f 181/2/6 183/2/6 185/2/6
f 184/2/6 182/2/6 186/2/6
f 181/2/6 185/2/6 187/2/6
f 185/2/6 186/2/6 187/2/6
f 186/2/6 182/2/6 188/2/6
f 187/2/6 186/2/6 188/2/6
f 189/3/6 190/3/6 191/3/6
f 191/3/6 190/3/6 192/3/6
f 189/3/6 191/3/6 193/3/6
f 192/3/6 190/3/6 194/3/6
f 189/3/6 193/3/6 195/3/6
f 193/3/6 194/3/6 195/3/6
f 194/3/6 190/3/6 196/3/6
f 195/3/6 194/3/6 196/3/6
f 197/2/6 198/2/6 199/2/6
f 199/2/6 198/2/6 200/2/6
f 201/2/6 202/2/6 203/2/6
f 203/2/6 202/2/6 204/2/6
f 201/2/6 203/2/6 205/2/6
f 204/2/6 202/2/6 206/2/6
f 201/2/6 205/2/6 207/2/6
f 205/2/6 206/2/6 207/2/6
f 206/2/6 202/2/6 208/2/6
f 207/2/6 206/2/6 208/2/6
