# MagicaVoxel @ ephtracy

# material
mtllib Log.mtl
usemtl palette

# normals
vn -1 0 0
vn 1 0 0
vn 0 0 1
vn 0 0 -1
vn 0 -1 0
vn 0 1 0

# texcoords
vt 0.111328 0.5
vt 0.123047 0.5
vt 0.154297 0.5
vt 0.169922 0.5
vt 0.232422 0.5
vt 0.275391 0.5

# verts
v -3 0 25
v -3 0 24
v -3 0 23
v -3 0 7
v -3 0 6
v -3 0 5
v -3 6 25
v -3 6 24
v -3 6 23
v -3 6 7
v -3 6 6
v -3 6 5
v -2 6 22
v -2 6 18
v -2 7 22
v -2 7 18
v -2 8 22
v -2 8 18
v 2 6 22
v 2 6 18
v 2 7 22
v 2 7 18
v 2 8 22
v 2 8 18
v 3 0 25
v 3 0 24
v 3 0 23
v 3 0 7
v 3 0 6
v 3 0 5
v 3 6 25
v 3 6 24
v 3 6 23
v 3 6 7
v 3 6 6
v 3 6 5
v -3 0 25
v -3 6 25
v -2 1 25
v -2 5 25
v -1 2 25
v -1 4 25
v 1 2 25
v 1 4 25
v 2 1 25
v 2 5 25
v 3 0 25
v 3 6 25
v -2 6 22
v -2 7 22
v -2 8 22
v 2 6 22
v 2 7 22
v 2 8 22
v -2 6 18
v -2 7 18
v -2 8 18
v 2 6 18
v 2 7 18
v 2 8 18
v -3 0 5
v -3 6 5
v -2 1 5
v -2 5 5
v -1 2 5
v -1 4 5
v 1 2 5
v 1 4 5
v 2 1 5
v 2 5 5
v 3 0 5
v 3 6 5
v -3 0 25
v 3 0 25
v -3 0 24
v 3 0 24
v -3 0 23
v 3 0 23
v -3 0 7
v 3 0 7
v -3 0 6
v 3 0 6
v -3 0 5
v 3 0 5
v -3 6 25
v 3 6 25
v -3 6 24
v 3 6 24
v -3 6 23
v 3 6 23
v -2 6 22
v 2 6 22
v -2 6 18
v 2 6 18
v -3 6 7
v 3 6 7
v -3 6 6
v 3 6 6
v -3 6 5
v 3 6 5
v -2 8 22
v 2 8 22
v -1 8 21
v 1 8 21
v -1 8 19
v 1 8 19
v -2 8 18
v 2 8 18

# faces
f 7/4/1 2/4/1 1/4/1
f 8/5/1 3/5/1 2/5/1
f 8/4/1 2/4/1 7/4/1
f 9/1/1 4/1/1 3/1/1
f 9/5/1 3/5/1 8/5/1
f 10/5/1 5/5/1 4/5/1
f 10/1/1 4/1/1 9/1/1
f 11/4/1 6/4/1 5/4/1
f 11/5/1 5/5/1 10/5/1
f 12/4/1 6/4/1 11/4/1
f 15/1/1 14/1/1 13/1/1
f 16/1/1 14/1/1 15/1/1
f 17/2/1 16/2/1 15/2/1
f 18/2/1 16/2/1 17/2/1
f 19/1/2 20/1/2 21/1/2
f 21/1/2 20/1/2 22/1/2
f 21/2/2 22/2/2 23/2/2
f 23/2/2 22/2/2 24/2/2
f 25/4/2 26/4/2 31/4/2
f 26/5/2 27/5/2 32/5/2
f 31/4/2 26/4/2 32/4/2
f 27/1/2 28/1/2 33/1/2
f 32/5/2 27/5/2 33/5/2
f 28/5/2 29/5/2 34/5/2
f 33/1/2 28/1/2 34/1/2
f 29/4/2 30/4/2 35/4/2
f 34/5/2 29/5/2 35/5/2
f 35/4/2 30/4/2 36/4/2
f 39/4/3 38/4/3 37/4/3
f 40/4/3 38/4/3 39/4/3
f 41/2/3 40/2/3 39/2/3
f 42/2/3 40/2/3 41/2/3
f 43/2/3 41/2/3 39/2/3
f 43/3/3 42/3/3 41/3/3
f 44/2/3 40/2/3 42/2/3
f 44/3/3 42/3/3 43/3/3
f 45/4/3 39/4/3 37/4/3
f 45/2/3 43/2/3 39/2/3
f 45/2/3 44/2/3 43/2/3
f 46/2/3 40/2/3 44/2/3
f 46/2/3 44/2/3 45/2/3
f 46/4/3 38/4/3 40/4/3
f 47/4/3 45/4/3 37/4/3
f 47/4/3 46/4/3 45/4/3
f 48/4/3 38/4/3 46/4/3
f 48/4/3 46/4/3 47/4/3
f 52/1/3 50/1/3 49/1/3
f 53/2/3 51/2/3 50/2/3
f 53/1/3 50/1/3 52/1/3
f 54/2/3 51/2/3 53/2/3
f 55/1/4 56/1/4 58/1/4
f 56/2/4 57/2/4 59/2/4
f 58/1/4 56/1/4 59/1/4
f 59/2/4 57/2/4 60/2/4
f 61/4/4 62/4/4 63/4/4
f 63/4/4 62/4/4 64/4/4
f 63/2/4 64/2/4 65/2/4
f 65/2/4 64/2/4 66/2/4
f 63/2/4 65/2/4 67/2/4
f 65/3/4 66/3/4 67/3/4
f 66/2/4 64/2/4 68/2/4
f 67/3/4 66/3/4 68/3/4
f 61/4/4 63/4/4 69/4/4
f 63/2/4 67/2/4 69/2/4
f 67/2/4 68/2/4 69/2/4
f 68/2/4 64/2/4 70/2/4
f 69/2/4 68/2/4 70/2/4
f 64/4/4 62/4/4 70/4/4
f 61/4/4 69/4/4 71/4/4
f 69/4/4 70/4/4 71/4/4
f 70/4/4 62/4/4 72/4/4
f 71/4/4 70/4/4 72/4/4
f 75/4/5 74/4/5 73/4/5
f 76/4/5 74/4/5 75/4/5
f 77/5/5 76/5/5 75/5/5
f 78/5/5 76/5/5 77/5/5
f 79/1/5 78/1/5 77/1/5
f 80/1/5 78/1/5 79/1/5
f 81/5/5 80/5/5 79/5/5
f 82/5/5 80/5/5 81/5/5
f 83/4/5 82/4/5 81/4/5
f 84/4/5 82/4/5 83/4/5
f 85/4/6 86/4/6 87/4/6
f 87/4/6 86/4/6 88/4/6
f 87/5/6 88/5/6 89/5/6
f 89/5/6 88/5/6 90/5/6
f 89/1/6 90/1/6 91/1/6
f 91/1/6 90/1/6 92/1/6
f 89/1/6 91/1/6 93/1/6
f 92/1/6 90/1/6 94/1/6
f 89/1/6 93/1/6 95/1/6
f 93/1/6 94/1/6 95/1/6
f 94/1/6 90/1/6 96/1/6
f 95/1/6 94/1/6 96/1/6
f 95/5/6 96/5/6 97/5/6
f 97/5/6 96/5/6 98/5/6
f 97/4/6 98/4/6 99/4/6
f 99/4/6 98/4/6 100/4/6
f 101/2/6 102/2/6 103/2/6
f 103/2/6 102/2/6 104/2/6
f 101/2/6 103/2/6 105/2/6
f 103/3/6 104/3/6 105/3/6
f 104/2/6 102/2/6 106/2/6
f 105/3/6 104/3/6 106/3/6
f 101/2/6 105/2/6 107/2/6
f 105/2/6 106/2/6 107/2/6
f 106/2/6 102/2/6 108/2/6
f 107/2/6 106/2/6 108/2/6
