# MagicaVoxel @ ephtracy

# material
mtllib EnvForestDefalt.mtl
usemtl palette

# normals
vn -1 0 0
vn 1 0 0
vn 0 0 1
vn 0 0 -1
vn 0 -1 0
vn 0 1 0

# texcoords
vt 0.583984 0.5
vt 0.626953 0.5
vt 0.982422 0.5
vt 0.986328 0.5

# verts
v -60 0 20
v -60 0 -20
v -60 5 20
v -60 5 16
v -60 5 12
v -60 5 8
v -60 5 4
v -60 5 -0
v -60 5 -4
v -60 5 -8
v -60 5 -12
v -60 5 -16
v -60 6 20
v -60 6 16
v -60 6 12
v -60 6 8
v -60 6 4
v -60 6 -0
v -60 6 -4
v -60 6 -8
v -60 6 -12
v -60 6 -16
v -60 6 -20
v 19 5 20
v 19 5 16
v 19 5 12
v 19 5 8
v 19 5 4
v 19 5 -0
v 19 5 -4
v 19 5 -8
v 19 5 -12
v 19 5 -16
v 19 5 -20
v 19 6 20
v 19 6 16
v 19 6 12
v 19 6 8
v 19 6 4
v 19 6 -0
v 19 6 -4
v 19 6 -8
v 19 6 -12
v 19 6 -16
v 19 6 -20
v -19 5 20
v -19 5 16
v -19 5 12
v -19 5 8
v -19 5 4
v -19 5 -0
v -19 5 -4
v -19 5 -8
v -19 5 -12
v -19 5 -16
v -19 5 -20
v -19 6 20
v -19 6 16
v -19 6 12
v -19 6 8
v -19 6 4
v -19 6 -0
v -19 6 -4
v -19 6 -8
v -19 6 -12
v -19 6 -16
v -19 6 -20
v 60 0 20
v 60 0 -20
v 60 5 20
v 60 5 16
v 60 5 12
v 60 5 8
v 60 5 4
v 60 5 -0
v 60 5 -4
v 60 5 -8
v 60 5 -12
v 60 5 -16
v 60 6 20
v 60 6 16
v 60 6 12
v 60 6 8
v 60 6 4
v 60 6 -0
v 60 6 -4
v 60 6 -8
v 60 6 -12
v 60 6 -16
v 60 6 -20
v -60 0 20
v -60 5 20
v -60 6 20
v -19 1 20
v -19 5 20
v -19 6 20
v 19 1 20
v 19 5 20
v 19 6 20
v 60 0 20
v 60 5 20
v 60 6 20
v -60 0 -20
v -60 6 -20
v -19 1 -20
v -19 5 -20
v -19 6 -20
v 19 1 -20
v 19 5 -20
v 19 6 -20
v 60 0 -20
v 60 6 -20
v -60 0 20
v 60 0 20
v -60 0 -20
v 60 0 -20
v -19 5 20
v 19 5 20
v -19 5 16
v 19 5 16
v -19 5 12
v 19 5 12
v -19 5 8
v 19 5 8
v -19 5 4
v 19 5 4
v -19 5 -0
v 19 5 -0
v -19 5 -4
v 19 5 -4
v -19 5 -8
v 19 5 -8
v -19 5 -12
v 19 5 -12
v -19 5 -16
v 19 5 -16
v -19 5 -20
v 19 5 -20
v -60 6 20
v -19 6 20
v 19 6 20
v 60 6 20
v -60 6 16
v -19 6 16
v 19 6 16
v 60 6 16
v -60 6 12
v -19 6 12
v 19 6 12
v 60 6 12
v -60 6 8
v -19 6 8
v 19 6 8
v 60 6 8
v -60 6 4
v -19 6 4
v 19 6 4
v 60 6 4
v -60 6 -0
v -19 6 -0
v 19 6 -0
v 60 6 -0
v -60 6 -4
v -19 6 -4
v 19 6 -4
v 60 6 -4
v -60 6 -8
v -19 6 -8
v 19 6 -8
v 60 6 -8
v -60 6 -12
v -19 6 -12
v 19 6 -12
v 60 6 -12
v -60 6 -16
v -19 6 -16
v 19 6 -16
v 60 6 -16
v -60 6 -20
v -19 6 -20
v 19 6 -20
v 60 6 -20

# faces
f 3/1/1 2/1/1 1/1/1
f 4/1/1 2/1/1 3/1/1
f 5/1/1 2/1/1 4/1/1
f 6/1/1 2/1/1 5/1/1
f 7/1/1 2/1/1 6/1/1
f 8/1/1 2/1/1 7/1/1
f 9/1/1 2/1/1 8/1/1
f 10/1/1 2/1/1 9/1/1
f 11/1/1 2/1/1 10/1/1
f 12/1/1 2/1/1 11/1/1
f 13/2/1 4/2/1 3/2/1
f 14/1/1 5/1/1 4/1/1
f 14/2/1 4/2/1 13/2/1
f 15/2/1 6/2/1 5/2/1
f 15/1/1 5/1/1 14/1/1
f 16/1/1 7/1/1 6/1/1
f 16/2/1 6/2/1 15/2/1
f 17/2/1 8/2/1 7/2/1
f 17/1/1 7/1/1 16/1/1
f 18/1/1 9/1/1 8/1/1
f 18/2/1 8/2/1 17/2/1
f 19/2/1 10/2/1 9/2/1
f 19/1/1 9/1/1 18/1/1
f 20/1/1 11/1/1 10/1/1
f 20/2/1 10/2/1 19/2/1
f 21/2/1 12/2/1 11/2/1
f 21/1/1 11/1/1 20/1/1
f 22/1/1 2/1/1 12/1/1
f 22/2/1 12/2/1 21/2/1
f 23/1/1 2/1/1 22/1/1
f 35/2/1 25/2/1 24/2/1
f 36/1/1 26/1/1 25/1/1
f 36/2/1 25/2/1 35/2/1
f 37/2/1 27/2/1 26/2/1
f 37/1/1 26/1/1 36/1/1
f 38/1/1 28/1/1 27/1/1
f 38/2/1 27/2/1 37/2/1
f 39/2/1 29/2/1 28/2/1
f 39/1/1 28/1/1 38/1/1
f 40/1/1 30/1/1 29/1/1
f 40/2/1 29/2/1 39/2/1
f 41/2/1 31/2/1 30/2/1
f 41/1/1 30/1/1 40/1/1
f 42/1/1 32/1/1 31/1/1
f 42/2/1 31/2/1 41/2/1
f 43/2/1 33/2/1 32/2/1
f 43/1/1 32/1/1 42/1/1
f 44/1/1 34/1/1 33/1/1
f 44/2/1 33/2/1 43/2/1
f 45/1/1 34/1/1 44/1/1
f 46/2/2 47/2/2 57/2/2
f 47/1/2 48/1/2 58/1/2
f 57/2/2 47/2/2 58/2/2
f 48/2/2 49/2/2 59/2/2
f 58/1/2 48/1/2 59/1/2
f 49/1/2 50/1/2 60/1/2
f 59/2/2 49/2/2 60/2/2
f 50/2/2 51/2/2 61/2/2
f 60/1/2 50/1/2 61/1/2
f 51/1/2 52/1/2 62/1/2
f 61/2/2 51/2/2 62/2/2
f 52/2/2 53/2/2 63/2/2
f 62/1/2 52/1/2 63/1/2
f 53/1/2 54/1/2 64/1/2
f 63/2/2 53/2/2 64/2/2
f 54/2/2 55/2/2 65/2/2
f 64/1/2 54/1/2 65/1/2
f 55/1/2 56/1/2 66/1/2
f 65/2/2 55/2/2 66/2/2
f 66/1/2 56/1/2 67/1/2
f 68/1/2 69/1/2 70/1/2
f 70/1/2 69/1/2 71/1/2
f 71/1/2 69/1/2 72/1/2
f 72/1/2 69/1/2 73/1/2
f 73/1/2 69/1/2 74/1/2
f 74/1/2 69/1/2 75/1/2
f 75/1/2 69/1/2 76/1/2
f 76/1/2 69/1/2 77/1/2
f 77/1/2 69/1/2 78/1/2
f 78/1/2 69/1/2 79/1/2
f 70/2/2 71/2/2 80/2/2
f 71/1/2 72/1/2 81/1/2
f 80/2/2 71/2/2 81/2/2
f 72/2/2 73/2/2 82/2/2
f 81/1/2 72/1/2 82/1/2
f 73/1/2 74/1/2 83/1/2
f 82/2/2 73/2/2 83/2/2
f 74/2/2 75/2/2 84/2/2
f 83/1/2 74/1/2 84/1/2
f 75/1/2 76/1/2 85/1/2
f 84/2/2 75/2/2 85/2/2
f 76/2/2 77/2/2 86/2/2
f 85/1/2 76/1/2 86/1/2
f 77/1/2 78/1/2 87/1/2
f 86/2/2 77/2/2 87/2/2
f 78/2/2 79/2/2 88/2/2
f 87/1/2 78/1/2 88/1/2
f 79/1/2 69/1/2 89/1/2
f 88/2/2 79/2/2 89/2/2
f 89/1/2 69/1/2 90/1/2
f 94/1/3 92/1/3 91/1/3
f 95/2/3 93/2/3 92/2/3
f 95/1/3 92/1/3 94/1/3
f 96/2/3 93/2/3 95/2/3
f 97/1/3 94/1/3 91/1/3
f 97/3/3 95/3/3 94/3/3
f 98/3/3 95/3/3 97/3/3
f 100/1/3 97/1/3 91/1/3
f 100/1/3 98/1/3 97/1/3
f 101/2/3 99/2/3 98/2/3
f 101/1/3 98/1/3 100/1/3
f 102/2/3 99/2/3 101/2/3
f 103/1/4 104/1/4 105/1/4
f 105/1/4 104/1/4 106/1/4
f 106/1/4 104/1/4 107/1/4
f 103/1/4 105/1/4 108/1/4
f 105/4/4 106/4/4 108/4/4
f 108/4/4 106/4/4 109/4/4
f 103/1/4 108/1/4 111/1/4
f 109/1/4 110/1/4 111/1/4
f 108/1/4 109/1/4 111/1/4
f 111/1/4 110/1/4 112/1/4
f 115/1/5 114/1/5 113/1/5
f 116/1/5 114/1/5 115/1/5
f 117/3/6 118/3/6 119/3/6
f 119/3/6 118/3/6 120/3/6
f 119/4/6 120/4/6 121/4/6
f 121/4/6 120/4/6 122/4/6
f 121/3/6 122/3/6 123/3/6
f 123/3/6 122/3/6 124/3/6
f 123/4/6 124/4/6 125/4/6
f 125/4/6 124/4/6 126/4/6
f 125/3/6 126/3/6 127/3/6
f 127/3/6 126/3/6 128/3/6
f 127/4/6 128/4/6 129/4/6
f 129/4/6 128/4/6 130/4/6
f 129/3/6 130/3/6 131/3/6
f 131/3/6 130/3/6 132/3/6
f 131/4/6 132/4/6 133/4/6
f 133/4/6 132/4/6 134/4/6
f 133/3/6 134/3/6 135/3/6
f 135/3/6 134/3/6 136/3/6
f 135/4/6 136/4/6 137/4/6
f 137/4/6 136/4/6 138/4/6
f 139/2/6 140/2/6 143/2/6
f 143/2/6 140/2/6 144/2/6
f 141/2/6 142/2/6 145/2/6
f 145/2/6 142/2/6 146/2/6
f 143/1/6 144/1/6 147/1/6
f 147/1/6 144/1/6 148/1/6
f 145/1/6 146/1/6 149/1/6
f 149/1/6 146/1/6 150/1/6
f 147/2/6 148/2/6 151/2/6
f 151/2/6 148/2/6 152/2/6
f 149/2/6 150/2/6 153/2/6
f 153/2/6 150/2/6 154/2/6
f 151/1/6 152/1/6 155/1/6
f 155/1/6 152/1/6 156/1/6
f 153/1/6 154/1/6 157/1/6
f 157/1/6 154/1/6 158/1/6
f 155/2/6 156/2/6 159/2/6
f 159/2/6 156/2/6 160/2/6
f 157/2/6 158/2/6 161/2/6
f 161/2/6 158/2/6 162/2/6
f 159/1/6 160/1/6 163/1/6
f 163/1/6 160/1/6 164/1/6
f 161/1/6 162/1/6 165/1/6
f 165/1/6 162/1/6 166/1/6
f 163/2/6 164/2/6 167/2/6
f 167/2/6 164/2/6 168/2/6
f 165/2/6 166/2/6 169/2/6
f 169/2/6 166/2/6 170/2/6
f 167/1/6 168/1/6 171/1/6
f 171/1/6 168/1/6 172/1/6
f 169/1/6 170/1/6 173/1/6
f 173/1/6 170/1/6 174/1/6
f 171/2/6 172/2/6 175/2/6
f 175/2/6 172/2/6 176/2/6
f 173/2/6 174/2/6 177/2/6
f 177/2/6 174/2/6 178/2/6
f 175/1/6 176/1/6 179/1/6
f 179/1/6 176/1/6 180/1/6
f 177/1/6 178/1/6 181/1/6
f 181/1/6 178/1/6 182/1/6
