# MagicaVoxel @ ephtracy

# material
mtllib Tree1.mtl
usemtl palette

# normals
vn -1 0 0
vn 1 0 0
vn 0 0 1
vn 0 0 -1
vn 0 -1 0
vn 0 1 0

# texcoords
vt 0.0605469 0.5
vt 0.123047 0.5
vt 0.541016 0.5
vt 0.583984 0.5
vt 0.634766 0.5

# verts
v -10 13 12
v -10 13 -9
v -10 17 12
v -10 17 -9
v -10 19 12
v -10 19 -9
v -10 23 12
v -10 23 -9
v -10 25 12
v -10 25 -9
v -10 29 12
v -10 29 -9
v -10 31 12
v -10 31 -9
v -10 35 12
v -10 35 -9
v -10 37 12
v -10 37 -9
v -10 41 12
v -10 41 -9
v -3 0 5
v -3 0 -2
v -3 13 5
v -3 13 -2
v 4 0 5
v 4 0 -2
v 4 13 5
v 4 13 -2
v 10 13 12
v 10 13 -9
v 10 17 12
v 10 17 -9
v 10 19 12
v 10 19 -9
v 10 23 12
v 10 23 -9
v 10 25 12
v 10 25 -9
v 10 29 12
v 10 29 -9
v 10 31 12
v 10 31 -9
v 10 35 12
v 10 35 -9
v 10 37 12
v 10 37 -9
v 10 41 12
v 10 41 -9
v -10 13 12
v -10 17 12
v -10 19 12
v -10 23 12
v -10 25 12
v -10 29 12
v -10 31 12
v -10 35 12
v -10 37 12
v -10 41 12
v 10 13 12
v 10 17 12
v 10 19 12
v 10 23 12
v 10 25 12
v 10 29 12
v 10 31 12
v 10 35 12
v 10 37 12
v 10 41 12
v -3 0 5
v -3 13 5
v 4 0 5
v 4 13 5
v -3 0 -2
v -3 13 -2
v 4 0 -2
v 4 13 -2
v -10 13 -9
v -10 17 -9
v -10 19 -9
v -10 23 -9
v -10 25 -9
v -10 29 -9
v -10 31 -9
v -10 35 -9
v -10 37 -9
v -10 41 -9
v 10 13 -9
v 10 17 -9
v 10 19 -9
v 10 23 -9
v 10 25 -9
v 10 29 -9
v 10 31 -9
v 10 35 -9
v 10 37 -9
v 10 41 -9
v -3 0 5
v 4 0 5
v -3 0 -2
v 4 0 -2
v -10 13 12
v 10 13 12
v -3 13 5
v 4 13 5
v -3 13 -2
v 4 13 -2
v -10 13 -9
v 10 13 -9
v -10 41 12
v 10 41 12
v -10 41 -9
v 10 41 -9

# faces
f 3/4/1 2/4/1 1/4/1
f 4/4/1 2/4/1 3/4/1
f 5/5/1 4/5/1 3/5/1
f 6/5/1 4/5/1 5/5/1
f 7/4/1 6/4/1 5/4/1
f 8/4/1 6/4/1 7/4/1
f 9/5/1 8/5/1 7/5/1
f 10/5/1 8/5/1 9/5/1
f 11/4/1 10/4/1 9/4/1
f 12/4/1 10/4/1 11/4/1
f 13/5/1 12/5/1 11/5/1
f 14/5/1 12/5/1 13/5/1
f 15/4/1 14/4/1 13/4/1
f 16/4/1 14/4/1 15/4/1
f 17/5/1 16/5/1 15/5/1
f 18/5/1 16/5/1 17/5/1
f 19/4/1 18/4/1 17/4/1
f 20/4/1 18/4/1 19/4/1
f 23/2/1 22/2/1 21/2/1
f 24/2/1 22/2/1 23/2/1
f 25/2/2 26/2/2 27/2/2
f 27/2/2 26/2/2 28/2/2
f 29/4/2 30/4/2 31/4/2
f 31/4/2 30/4/2 32/4/2
f 31/5/2 32/5/2 33/5/2
f 33/5/2 32/5/2 34/5/2
f 33/4/2 34/4/2 35/4/2
f 35/4/2 34/4/2 36/4/2
f 35/5/2 36/5/2 37/5/2
f 37/5/2 36/5/2 38/5/2
f 37/4/2 38/4/2 39/4/2
f 39/4/2 38/4/2 40/4/2
f 39/5/2 40/5/2 41/5/2
f 41/5/2 40/5/2 42/5/2
f 41/4/2 42/4/2 43/4/2
f 43/4/2 42/4/2 44/4/2
f 43/5/2 44/5/2 45/5/2
f 45/5/2 44/5/2 46/5/2
f 45/4/2 46/4/2 47/4/2
f 47/4/2 46/4/2 48/4/2
f 59/4/3 50/4/3 49/4/3
f 60/5/3 51/5/3 50/5/3
f 60/4/3 50/4/3 59/4/3
f 61/4/3 52/4/3 51/4/3
f 61/5/3 51/5/3 60/5/3
f 62/5/3 53/5/3 52/5/3
f 62/4/3 52/4/3 61/4/3
f 63/4/3 54/4/3 53/4/3
f 63/5/3 53/5/3 62/5/3
f 64/5/3 55/5/3 54/5/3
f 64/4/3 54/4/3 63/4/3
f 65/4/3 56/4/3 55/4/3
f 65/5/3 55/5/3 64/5/3
f 66/5/3 57/5/3 56/5/3
f 66/4/3 56/4/3 65/4/3
f 67/4/3 58/4/3 57/4/3
f 67/5/3 57/5/3 66/5/3
f 68/4/3 58/4/3 67/4/3
f 71/2/3 70/2/3 69/2/3
f 72/2/3 70/2/3 71/2/3
f 73/2/4 74/2/4 75/2/4
f 75/2/4 74/2/4 76/2/4
f 77/4/4 78/4/4 87/4/4
f 78/5/4 79/5/4 88/5/4
f 87/4/4 78/4/4 88/4/4
f 79/4/4 80/4/4 89/4/4
f 88/5/4 79/5/4 89/5/4
f 80/5/4 81/5/4 90/5/4
f 89/4/4 80/4/4 90/4/4
f 81/4/4 82/4/4 91/4/4
f 90/5/4 81/5/4 91/5/4
f 82/5/4 83/5/4 92/5/4
f 91/4/4 82/4/4 92/4/4
f 83/4/4 84/4/4 93/4/4
f 92/5/4 83/5/4 93/5/4
f 84/5/4 85/5/4 94/5/4
f 93/4/4 84/4/4 94/4/4
f 85/4/4 86/4/4 95/4/4
f 94/5/4 85/5/4 95/5/4
f 95/4/4 86/4/4 96/4/4
f 99/2/5 98/2/5 97/2/5
f 100/2/5 98/2/5 99/2/5
f 103/4/5 102/4/5 101/4/5
f 104/4/5 102/4/5 103/4/5
f 105/4/5 103/4/5 101/4/5
f 106/4/5 102/4/5 104/4/5
f 107/4/5 105/4/5 101/4/5
f 107/4/5 106/4/5 105/4/5
f 108/4/5 102/4/5 106/4/5
f 108/4/5 106/4/5 107/4/5
f 109/4/6 110/4/6 111/4/6
f 111/4/6 110/4/6 112/4/6
